<svg xmlns="http://www.w3.org/2000/svg" xmlns:xlink="http://www.w3.org/1999/xlink" width="34" height="34" viewBox="0 0 34 34">
  <defs>
    <clipPath id="clip-add_project">
      <rect width="34" height="34"/>
    </clipPath>
  </defs>
  <g id="add_project" clip-path="url(#clip-add_project)">
    <rect width="34" height="34" fill="rgba(255,255,255,0)"/>
    <g id="noun_add_929467" transform="translate(1 1)">
      <path id="Path_275" data-name="Path 275" d="M35.766,13.234a16,16,0,1,0,0,22.631A16.009,16.009,0,0,0,35.766,13.234ZM31.717,25.456a1.346,1.346,0,0,1-.925.386H25.78v5.012a1.316,1.316,0,0,1-1.311,1.311,1.3,1.3,0,0,1-1.311-1.311V25.842H18.146a1.311,1.311,0,0,1,0-2.622h5.012V18.208A1.3,1.3,0,0,1,24.469,16.9h0a1.3,1.3,0,0,1,1.311,1.311V23.22h5.012A1.3,1.3,0,0,1,32.1,24.531,1.547,1.547,0,0,1,31.717,25.456Z" transform="translate(-8.45 -8.55)" fill="#2ea5ff"/>
    </g>
  </g>
</svg>
