<svg xmlns="http://www.w3.org/2000/svg" xmlns:xlink="http://www.w3.org/1999/xlink" width="23" height="23" viewBox="0 0 23 23">
  <defs>
    <clipPath id="clip-explore">
      <rect width="23" height="23"/>
    </clipPath>
  </defs>
  <g id="explore" clip-path="url(#clip-explore)">
    <rect width="23" height="23" fill="rgba(255,255,255,0)"/>
    <g id="Group_5860" data-name="Group 5860" transform="translate(-373.855 -28.981)">
      <g id="start-up" transform="translate(374.835 29.98)">
        <path id="Path_526" data-name="Path 526" d="M73.215,283.676a.617.617,0,0,0,.115.712l.151.151c.435-.516.943-1.076,1.558-1.691.044-.043.088-.065.132-.1l-.97-.97C73.637,282.793,73.309,283.489,73.215,283.676Zm0,0" transform="translate(-70.143 -270.194)" fill="#777"/>
        <path id="Path_527" data-name="Path 527" d="M164.579,389.694c-.617.617-1.176,1.125-1.689,1.561l.2.2a.616.616,0,0,0,.718.112c.319-.165.821-.4,1.887-.994l-1.015-1.015c-.04.044-.061.088-.1.132Zm0,0" transform="translate(-156.197 -373.554)" fill="#777"/>
        <path id="Path_528" data-name="Path 528" d="M65.193,311.492c-.445-.445-1.7-.046-2.286.542a16.391,16.391,0,0,0-3.257,4.188.616.616,0,0,0,.824.823,16.51,16.51,0,0,0,4.176-3.268c.647-.647.966-1.862.543-2.285Zm0,0" transform="translate(-57.139 -298.51)" fill="#777"/>
        <path id="Path_529" data-name="Path 529" d="M1.924,165.26.181,167a.616.616,0,0,0,.6,1.031,5.065,5.065,0,0,1,2.329-.216,33.072,33.072,0,0,1,2.551-3.892c-.523-.335-2.25-.148-3.733,1.334Zm0,0" transform="translate(0 -157.053)" fill="#777"/>
        <path id="Path_530" data-name="Path 530" d="M245.98,381.994a.615.615,0,0,0,.713-.114l1.743-1.743c1.35-1.35,1.587-3.092,1.281-3.644a35.175,35.175,0,0,1-3.9,2.532,7.552,7.552,0,0,1-.174,2.329A.615.615,0,0,0,245.98,381.994Zm0,0" transform="translate(-235.547 -361.022)" fill="#777"/>
        <path id="Path_531" data-name="Path 531" d="M285.184,137.85a1.849,1.849,0,1,0,2.615,0A1.851,1.851,0,0,0,285.184,137.85Zm0,0" transform="translate(-272.948 -131.666)" fill="#777"/>
        <path id="Path_532" data-name="Path 532" d="M392.841.6a.615.615,0,0,0-.569-.568,12.184,12.184,0,0,0-4.5.524,5.174,5.174,0,0,0,1.533,3.011,5.158,5.158,0,0,0,3.069,1.53,12.746,12.746,0,0,0,.466-4.5Zm0,0" transform="translate(-371.84 0)" fill="#777"/>
        <path id="Path_533" data-name="Path 533" d="M126.236,27.449A6.475,6.475,0,0,1,124.383,24c-3.7,1.518-7.244,4.833-10.044,9.489l1.391,1.391a2.6,2.6,0,0,1,2.836.244,2.593,2.593,0,0,1,.243,2.835l1.437,1.437c3.583-2.159,7.754-5.561,9.527-10.087a6.444,6.444,0,0,1-3.538-1.855Zm-.872,5.23a3.082,3.082,0,1,1,0-4.358A3.085,3.085,0,0,1,125.364,32.679Zm0,0" transform="translate(-109.64 -23.009)" fill="#777"/>
      </g>
    </g>
  </g>
</svg>
