<svg xmlns="http://www.w3.org/2000/svg" xmlns:xlink="http://www.w3.org/1999/xlink" width="20" height="12" viewBox="0 0 20 12">
  <defs>
    <clipPath id="clip-eye_white">
      <rect width="20" height="12"/>
    </clipPath>
  </defs>
  <g id="eye_white" clip-path="url(#clip-eye_white)">
    <rect width="20" height="12" fill="rgba(255,255,255,0)"/>
    <g id="noun_Eye_2452910" transform="translate(0.788 0.387)">
      <g id="Group_5783" data-name="Group 5783" transform="translate(-0.25 0.124)">
        <path id="Path_2474" data-name="Path 2474" d="M-.075,5.161c4.115-6.754,14.44-6.677,18.633,0a.987.987,0,0,1,0,.932c-4.192,6.6-14.518,6.754-18.633,0A.707.707,0,0,1-.075,5.161ZM9.241,1.9A3.712,3.712,0,0,1,12.89,5.627,3.645,3.645,0,0,1,9.241,9.276,3.712,3.712,0,0,1,5.514,5.627,3.778,3.778,0,0,1,9.241,1.9Z" transform="translate(0.25 -0.124)" fill="#fff" fill-rule="evenodd"/>
      </g>
    </g>
  </g>
</svg>
