<svg id="google" xmlns="http://www.w3.org/2000/svg" width="25.987" height="25.987" viewBox="0 0 25.987 25.987">
  <g id="search">
    <path id="Path_2691" data-name="Path 2691" d="M5.759,146.954l-.9,3.377-3.306.07a13.016,13.016,0,0,1-.1-12.133h0l2.943.54,1.289,2.926a7.755,7.755,0,0,0,.073,5.221Z" transform="translate(0 -131.25)" fill="#fbbb00"/>
    <path id="Path_2692" data-name="Path 2692" d="M274.109,208.176a12.989,12.989,0,0,1-4.632,12.56h0l-3.707-.189-.525-3.276a7.744,7.744,0,0,0,3.332-3.954h-6.948v-5.14h12.481Z" transform="translate(-248.349 -197.61)" fill="#518ef8"/>
    <path id="Path_2693" data-name="Path 2693" d="M50.088,316.83h0a13,13,0,0,1-19.579-3.975l4.211-3.447a7.728,7.728,0,0,0,11.136,3.957Z" transform="translate(-28.961 -293.705)" fill="#28b446"/>
    <path id="Path_2694" data-name="Path 2694" d="M48.458,2.991,44.249,6.437a7.727,7.727,0,0,0-11.391,4.046L28.625,7.018h0A13,13,0,0,1,48.458,2.991Z" transform="translate(-27.171)" fill="#f14336"/>
  </g>
</svg>
