<svg xmlns="http://www.w3.org/2000/svg" xmlns:xlink="http://www.w3.org/1999/xlink" width="19" height="27" viewBox="0 0 19 27">
  <defs>
    <clipPath id="clip-left_arrow">
      <rect width="19" height="27"/>
    </clipPath>
  </defs>
  <g id="left_arrow" clip-path="url(#clip-left_arrow)">
    <rect width="19" height="27" fill="rgba(255,255,255,0)"/>
    <g id="Group_5864" data-name="Group 5864" transform="translate(-11.5 -8.5)">
      <g id="noun_Arrow_1920906" transform="translate(13.776 10.066)">
        <path id="Path_12" data-name="Path 12" d="M33.206,26.342a2.573,2.573,0,0,0,1.783-.728,2.532,2.532,0,0,0,0-3.567l-7.61-7.636,7.61-7.636A2.522,2.522,0,0,0,31.422,3.21L22,12.629a2.486,2.486,0,0,0-.728,1.783A2.594,2.594,0,0,0,22,16.2l9.419,9.419A2.618,2.618,0,0,0,33.206,26.342Z" transform="translate(-21.275 -2.475)" fill="#335ba5"/>
      </g>
    </g>
  </g>
</svg>
