<svg xmlns="http://www.w3.org/2000/svg" xmlns:xlink="http://www.w3.org/1999/xlink" width="20" height="16" viewBox="0 0 20 16">
  <defs>
    <clipPath id="clip-mail_white">
      <rect width="20" height="16"/>
    </clipPath>
  </defs>
  <g id="mail_white" clip-path="url(#clip-mail_white)">
    <rect width="20" height="16" fill="rgba(255,255,255,0)"/>
    <path id="mail-bulk" d="M9.344,267.213c-1.5,0-2.99-1.308-3.738-1.869C1.869,262.728.748,261.793,0,261.233v7.849a1.869,1.869,0,0,0,1.869,1.869h14.95a1.869,1.869,0,0,0,1.869-1.869v-7.849c-.747.561-1.869,1.495-5.606,4.111C12.334,265.9,10.839,267.213,9.344,267.213ZM16.819,256H1.869A1.869,1.869,0,0,0,0,257.869v.934c1.5,1.121,1.308,1.121,6.728,5.046.561.374,1.682,1.495,2.616,1.495s2.056-1.121,2.616-1.308c5.419-3.924,5.233-3.924,6.728-5.046v-1.121A1.869,1.869,0,0,0,16.819,256Z" transform="translate(0.656 -255.475)" fill="#fff"/>
  </g>
</svg>
