<svg xmlns="http://www.w3.org/2000/svg" xmlns:xlink="http://www.w3.org/1999/xlink" width="37" height="25" viewBox="0 0 37 25">
  <defs>
    <clipPath id="clip-message">
      <rect width="37" height="25"/>
    </clipPath>
  </defs>
  <g id="message" clip-path="url(#clip-message)">
    <rect width="37" height="25" fill="rgba(255,255,255,0)"/>
    <g id="noun_Mail_1557081" transform="translate(-9.033 -22.896)">
      <g id="Group_14" data-name="Group 14" transform="translate(10 24)">
        <path id="Path_523" data-name="Path 523" d="M12.63,976.362a2.607,2.607,0,0,0-1.4.411l15.013,13.109a1.821,1.821,0,0,0,2.548,0l15.04-13.122a2.623,2.623,0,0,0-1.4-.4H12.63Zm-2.479,1.781a2.624,2.624,0,0,0-.151.849v17.533a2.624,2.624,0,0,0,2.63,2.63H42.436a2.624,2.624,0,0,0,2.63-2.63V978.992a2.622,2.622,0,0,0-.151-.849L29.944,991.211a3.675,3.675,0,0,1-4.849-.014L10.151,978.143Z" transform="translate(-10 -976.362)" fill="#333"/>
      </g>
    </g>
  </g>
</svg>
