<svg xmlns="http://www.w3.org/2000/svg" xmlns:xlink="http://www.w3.org/1999/xlink" width="16" height="19" viewBox="0 0 16 19">
  <defs>
    <clipPath id="clip-password_white">
      <rect width="16" height="19"/>
    </clipPath>
  </defs>
  <g id="password_white" clip-path="url(#clip-password_white)">
    <rect width="16" height="19" fill="rgba(255,255,255,0)"/>
    <path id="lock" d="M13.754,7.7h-.825V5.227a5.227,5.227,0,1,0-10.453,0V7.7H1.651A1.651,1.651,0,0,0,0,9.353v6.6a1.651,1.651,0,0,0,1.651,1.651h12.1A1.651,1.651,0,0,0,15.4,15.955v-6.6A1.651,1.651,0,0,0,13.754,7.7Zm-3.576,0H5.227V5.227a2.476,2.476,0,0,1,4.952,0Z" transform="translate(0.297 0.697)" fill="#fff"/>
  </g>
</svg>
