<svg xmlns="http://www.w3.org/2000/svg" xmlns:xlink="http://www.w3.org/1999/xlink" width="23" height="23" viewBox="0 0 23 23">
  <defs>
    <clipPath id="clip-projects_selected">
      <rect width="23" height="23"/>
    </clipPath>
  </defs>
  <g id="projects_selected" clip-path="url(#clip-projects_selected)">
    <rect width="23" height="23" fill="rgba(255,255,255,0)"/>
    <g id="Group_5862" data-name="Group 5862" transform="translate(-243.563 -29)">
      <g id="Layer_2" data-name="Layer 2" transform="translate(244.639 29.613)">
        <g id="Layer_1" data-name="Layer 1" transform="translate(0)">
          <path id="Path_543" data-name="Path 543" d="M19.388,12.188a.726.726,0,0,1-.284-.74,4.266,4.266,0,0,0,0-1.121.656.656,0,0,1,.2-.671,12.507,12.507,0,0,0,1.014-.933,1.6,1.6,0,0,0,.3-2c-.48-.883-.985-1.753-1.507-2.609a1.594,1.594,0,0,0-1.965-.705c-.417.137-.841.249-1.251.4a.5.5,0,0,1-.53-.082,6.452,6.452,0,0,0-1.281-.745.4.4,0,0,1-.259-.3c-.1-.45-.2-.9-.3-1.349A1.562,1.562,0,0,0,12.163,0H8.683A2.169,2.169,0,0,0,8.2.113a1.706,1.706,0,0,0-.882,1.21q-.151.674-.3,1.348a.323.323,0,0,1-.18.269,7.651,7.651,0,0,0-1.445.841.331.331,0,0,1-.318.053C4.611,3.692,4.152,3.551,3.7,3.4a1.618,1.618,0,0,0-1.97.706c-.119.185-.223.378-.332.567C.988,5.381.558,6.073.183,6.8a1.6,1.6,0,0,0,.3,1.882,12.031,12.031,0,0,0,1,.919.681.681,0,0,1,.268.687,4.131,4.131,0,0,0,0,1.206.662.662,0,0,1-.252.673c-.34.275-.647.592-.972.885a1.643,1.643,0,0,0-.313,1.985c.507.9,1.011,1.8,1.555,2.682a1.545,1.545,0,0,0,1.765.695c.493-.127.974-.3,1.458-.454a.476.476,0,0,1,.472.081,6.743,6.743,0,0,0,1.357.783.339.339,0,0,1,.2.279c.1.463.2.929.313,1.389A1.529,1.529,0,0,0,8.64,21.774h3.523a1.519,1.519,0,0,0,.581-.167,1.636,1.636,0,0,0,.741-1c.133-.5.233-1.008.346-1.512a.362.362,0,0,1,.217-.29,6.871,6.871,0,0,0,1.357-.783.479.479,0,0,1,.475-.064c.488.166.977.333,1.478.459a1.57,1.57,0,0,0,1.7-.665c.24-.36.441-.743.656-1.117.322-.558.667-1.1.955-1.68a1.588,1.588,0,0,0-.245-1.8,10.04,10.04,0,0,0-1.038-.972Zm-7.114,2.653c-.015.19,0,.383-.014.572a.99.99,0,0,1-.992.914c-.551.006-1.1,0-1.653,0A.994.994,0,0,1,8.6,15.414c-.03-.238-.113-.532.013-.7.1-.14.408-.037.624-.041.4-.007.794,0,1.187,0,.558,0,1.116,0,1.674,0C12.232,14.666,12.285,14.7,12.274,14.841Zm.885-2.345a2.386,2.386,0,0,0-.842,1.191c-.026.113-.113.082-.188.082H8.713c-.088,0-.156,0-.182-.116a1.767,1.767,0,0,0-.671-1,4.013,4.013,0,0,1-1.443-2.4A4.1,4.1,0,0,1,9.593,5.529a4.039,4.039,0,0,1,4.834,3.263A3.864,3.864,0,0,1,13.159,12.5Z" transform="translate(0)" fill="#2ea5ff"/>
        </g>
      </g>
    </g>
  </g>
</svg>
