<svg xmlns="http://www.w3.org/2000/svg" xmlns:xlink="http://www.w3.org/1999/xlink" width="19" height="27" viewBox="0 0 19 27">
  <defs>
    <clipPath id="clip-right_arrow">
      <rect width="19" height="27"/>
    </clipPath>
  </defs>
  <g id="right_arrow" clip-path="url(#clip-right_arrow)">
    <rect width="19" height="27" fill="rgba(255,255,255,0)"/>
    <g id="Group_5864" data-name="Group 5864" transform="translate(2.276 1.566)">
      <g id="noun_Arrow_1920906" transform="translate(0 0)">
        <path id="Path_12" data-name="Path 12" d="M23.793,26.342a2.573,2.573,0,0,1-1.783-.728,2.532,2.532,0,0,1,0-3.567l7.61-7.635L22.01,6.776A2.522,2.522,0,0,1,25.576,3.21L35,12.628a2.486,2.486,0,0,1,.728,1.783A2.594,2.594,0,0,1,35,16.2l-9.419,9.419A2.618,2.618,0,0,1,23.793,26.342Z" transform="translate(-21.275 -2.475)" fill="#335ba5"/>
      </g>
    </g>
  </g>
</svg>
