<svg id="success" xmlns="http://www.w3.org/2000/svg" width="99" height="99" viewBox="0 0 99 99">
  <path id="Combined_Shape" data-name="Combined Shape" d="M49.5,99A49.513,49.513,0,0,1,30.233,3.89,49.513,49.513,0,0,1,68.767,95.11,49.189,49.189,0,0,1,49.5,99Zm0-92.124A42.624,42.624,0,1,0,92.124,49.5,42.673,42.673,0,0,0,49.5,6.876Z" fill="#51be7c"/>
  <path id="Shape" d="M17.435,25.465,6.212,16.06A3.694,3.694,0,0,0,.991,21.28L14.824,33.295a3.694,3.694,0,0,0,5.221,0L47.134,6.211A3.694,3.694,0,0,0,41.913.991Z" transform="translate(26.125 33)" fill="#51be7c"/>
</svg>
